<?xml version="1.0" encoding="UTF-8"?>
<svg data-bbox="-0.006 0 520.276 88.37" viewBox="0 0 520.27 88.37" xmlns="http://www.w3.org/2000/svg" data-type="ugc">
    <g>
        <defs>
            <filter filterUnits="userSpaceOnUse" id="8278093c-f6c1-409c-8f63-1a6d4bc78986">
                <feOffset dy="7" dx="7"/>
                <feGaussianBlur stdDeviation="5" result="blur"/>
                <feFlood flood-opacity=".1" flood-color="#000000"/>
                <feComposite operator="in" in2="blur"/>
                <feComposite in="SourceGraphic"/>
            </filter>
        </defs>
        <g filter="url(#8278093c-f6c1-409c-8f63-1a6d4bc78986)">
            <path d="M200.85 9.3v12.21h-23.86v65.41h-14.22V21.5h-23.86V9.29h61.94Z" fill="#13273f"/>
            <path d="M196.96 57.9c0-5.15.76-9.67 2.3-13.55 1.53-3.88 3.56-7.11 6.1-9.69s5.45-4.52 8.74-5.82c3.29-1.31 6.65-1.96 10.08-1.96q12.09 0 18.87 7.5c4.52 5 6.78 12.47 6.78 22.4q0 1.125-.06 2.52c-.04.94-.09 1.78-.17 2.52h-38.64q.555 7.05 4.98 10.92c2.95 2.58 7.22 3.86 12.82 3.86 3.29 0 6.29-.3 9.02-.9 2.72-.6 4.87-1.23 6.44-1.9l1.79 11.09c-.75.38-1.77.77-3.08 1.18s-2.8.78-4.48 1.12-3.49.62-5.43.84-3.92.34-5.94.34c-5.15 0-9.63-.77-13.44-2.3s-6.94-3.66-9.41-6.38c-2.46-2.72-4.29-5.94-5.49-9.63-1.2-3.7-1.79-7.75-1.79-12.15Zm39.32-6.04c0-1.87-.26-3.64-.78-5.32s-1.29-3.14-2.3-4.37a10.9 10.9 0 0 0-3.7-2.91c-1.46-.71-3.19-1.06-5.21-1.06s-3.92.39-5.49 1.18c-1.57.78-2.89 1.81-3.98 3.08-1.08 1.27-1.92 2.73-2.52 4.37q-.9 2.46-1.23 5.04h25.2Z" fill="#13273f"/>
            <path d="M294.84 40.54c-1.12-.37-2.67-.76-4.65-1.18-1.98-.41-4.27-.62-6.89-.62-1.49 0-3.08.15-4.76.45s-2.86.56-3.53.78V86.9h-13.55V31.14c2.61-.97 5.88-1.88 9.8-2.74q5.88-1.29 13.05-1.29c.9 0 1.94.06 3.14.17a55 55 0 0 1 7.05 1.12c1.12.26 2.02.5 2.69.73l-2.35 11.42Z" fill="#13273f"/>
            <path d="M338.47 40.54c-1.12-.37-2.67-.76-4.65-1.18-1.98-.41-4.27-.62-6.89-.62-1.49 0-3.08.15-4.76.45s-2.86.56-3.53.78V86.9h-13.55V31.14c2.61-.97 5.88-1.88 9.8-2.74q5.88-1.29 13.05-1.29c.9 0 1.94.06 3.14.17a55 55 0 0 1 7.05 1.12c1.12.26 2.02.5 2.69.73l-2.35 11.42Z" fill="#13273f"/>
            <path d="M367.52 26.88q6.72 0 11.31 1.68c3.06 1.12 5.51 2.69 7.34 4.71s3.14 4.46 3.92 7.34 1.18 6.03 1.18 9.46v35.5c-2.09.45-5.25.99-9.46 1.62-4.22.63-8.98.95-14.28.95-3.51 0-6.72-.34-9.63-1.01s-5.4-1.75-7.45-3.25c-2.05-1.49-3.66-3.43-4.82-5.82q-1.74-3.585-1.74-8.85c0-5.265.65-6.2 1.96-8.51 1.3-2.31 3.08-4.2 5.32-5.66s4.83-2.5 7.78-3.14c2.95-.63 6.03-.95 9.24-.95 1.49 0 3.06.09 4.7.28s3.4.5 5.26.95v-2.24c0-1.57-.19-3.06-.56-4.48-.38-1.42-1.03-2.67-1.96-3.75s-2.17-1.92-3.7-2.52-3.46-.9-5.77-.9c-3.14 0-6.01.22-8.62.67s-4.74.97-6.38 1.57l-1.68-10.98c1.72-.6 4.22-1.19 7.5-1.79 3.29-.6 6.79-.9 10.53-.9Zm1.12 50.51c4.18 0 7.35-.22 9.52-.67V61.71c-.75-.22-1.83-.45-3.25-.67s-2.99-.34-4.7-.34c-1.49 0-3.01.11-4.54.34q-2.295.33-4.14 1.23t-2.97 2.52c-.75 1.08-1.12 2.45-1.12 4.09 0 3.21 1.01 5.43 3.02 6.66 2.02 1.23 4.74 1.85 8.18 1.85" fill="#13273f"/>
            <path d="M429.24 0c3.14 0 5.9.28 8.29.84s4.18 1.06 5.38 1.51l-2.58 11.2c-1.27-.6-2.74-1.08-4.42-1.46-1.68-.37-3.49-.56-5.43-.56-2.17 0-4 .32-5.49.95-1.49.64-2.69 1.51-3.58 2.63-.9 1.12-1.53 2.48-1.9 4.09-.38 1.61-.56 3.34-.56 5.21v3.92h21.28v11.31h-21.28V86.9H405.4V24.19c0-7.54 1.98-13.46 5.94-17.75S421.27 0 429.26 0Z" fill="#13273f"/>
            <path d="M467.12 26.88q6.72 0 11.31 1.68c3.06 1.12 5.51 2.69 7.34 4.71s3.14 4.46 3.92 7.34 1.18 6.03 1.18 9.46v35.5c-2.09.45-5.25.99-9.46 1.62-4.22.63-8.98.95-14.28.95-3.51 0-6.72-.34-9.63-1.01s-5.4-1.75-7.45-3.25c-2.05-1.49-3.66-3.43-4.82-5.82q-1.74-3.585-1.74-8.85c0-5.265.65-6.2 1.96-8.51 1.3-2.31 3.08-4.2 5.32-5.66s4.83-2.5 7.78-3.14c2.95-.63 6.03-.95 9.24-.95 1.49 0 3.06.09 4.7.28s3.4.5 5.26.95v-2.24c0-1.57-.19-3.06-.56-4.48-.38-1.42-1.03-2.67-1.96-3.75s-2.17-1.92-3.7-2.52-3.46-.9-5.77-.9c-3.14 0-6.01.22-8.62.67s-4.74.97-6.38 1.57l-1.68-10.98c1.72-.6 4.22-1.19 7.5-1.79 3.29-.6 6.79-.9 10.53-.9Zm1.12 50.51c4.18 0 7.35-.22 9.52-.67V61.71c-.75-.22-1.83-.45-3.25-.67s-2.99-.34-4.7-.34c-1.49 0-3.01.11-4.54.34q-2.295.33-4.14 1.23t-2.97 2.52c-.75 1.08-1.12 2.45-1.12 4.09 0 3.21 1.01 5.43 3.02 6.66 2.02 1.23 4.74 1.85 8.18 1.85" fill="#13273f"/>
            <path d="M519.86 11.2c0 2.54-.82 4.55-2.46 6.05s-3.58 2.24-5.82 2.24-4.29-.75-5.94-2.24c-1.64-1.49-2.46-3.51-2.46-6.05s.82-4.67 2.46-6.16 3.62-2.24 5.94-2.24 4.18.75 5.82 2.24 2.46 3.55 2.46 6.16m-1.46 75.71h-13.55V28.34h13.55v58.58Z" fill="#13273f"/>
            <path fill="#355998" d="M520.27 11.17a8.69 8.69 0 1 1-17.38 0 8.69 8.69 0 0 1 17.38 0"/>
            <path fill="#13273f" d="M206.09 15.48a6.31 6.31 0 0 1-6.31 6.31h-60.62a6.31 6.31 0 1 1 0-12.62h60.62a6.31 6.31 0 0 1 6.31 6.31"/>
            <path d="M39.72 15.58c.54-.96 1.45-.97 2.01-.03l3.88 6.47c.57.94.58 2.5.03 3.45L11.1 85.59c-.55.95-1.9 1.73-3 1.73H1.24c-1.1 0-1.56-.78-1.02-1.74z" fill="#0b3a6f"/>
            <path d="M47.18 27.42c.55-.95 1.46-.96 2.02-.02l3.88 6.47c.57.94.57 2.49.01 3.44l-28.43 48.3c-.56.95-1.91 1.72-3.01 1.72h-6.86c-1.1 0-1.55-.78-1-1.73z" fill="#0b3a6f"/>
            <path d="M38.95.47c-1.1 0-1.55.78-.99 1.73l35.91 61.41c.56.95 1.91 1.73 3.01 1.73h6.86c1.1 0 1.55-.78 1-1.73L49.2 2.21c-.55-.95-1.9-1.73-3-1.73h-7.25Z" fill="#8bafe3"/>
            <path d="M57.95 8.47c-1.1 0-1.55.78-1 1.73l30.93 53.4c.55.95 1.9 1.73 3 1.73h6.86c1.1 0 1.55-.78 1.01-1.74L68.2 10.2c-.55-.95-1.89-1.74-2.99-1.74h-7.25Z" fill="#8bafe3"/>
            <path d="M41.43 67.73c-1.1 0-2.45.78-3.01 1.73l-3.05 5.21c-.56.95-.11 1.73.99 1.74l70.53.5c1.1 0 2.46-.76 3.02-1.71l3.42-5.76c.56-.95.12-1.72-.98-1.72H41.43Z" fill="#355998"/>
            <path d="M34.63 78.72c-1.1 0-2.45.78-3.01 1.73l-3.05 5.21c-.56.95-.11 1.73.99 1.72l61.54-.06c1.1 0 2.46-.78 3.02-1.72l3.05-5.16c.56-.95.12-1.72-.98-1.72z" fill="#355998"/>
        </g>
    </g>
</svg>
